<svg width="203" height="202" viewBox="0 0 203 202" fill="none" xmlns="http://www.w3.org/2000/svg">
<g clip-path="url(#clip0_160_5742)">
<path d="M96.1948 2.20567L2.88497 95.5155C-0.0556782 98.4561 -0.0556782 103.224 2.88497 106.165L96.1948 199.474C99.1354 202.415 103.903 202.415 106.844 199.474L200.154 106.165C203.094 103.224 203.094 98.4561 200.154 95.5155L106.844 2.20567C103.903 -0.734977 99.1354 -0.73498 96.1948 2.20567Z" fill="#F1F1F2"/>
<path d="M186.84 82.18C129.11 85.91 59.81 107.4 18.64 121.91L2.89999 106.17C-0.0400081 103.23 -0.0400081 98.46 2.89999 95.52L96.2 2.2C99.14 -0.739997 103.91 -0.739997 106.85 2.2L186.83 82.18H186.84Z" fill="white"/>
<path d="M129.16 97.4C122.73 92.33 114.89 89.41 105.85 88.73C98.97 88.21 93.55 86.98 89.71 85.06C84.95 82.89 82.64 79.84 82.64 75.73C82.64 72.3 84.06 69.6 86.96 67.48C89.99 65.39 94.11 64.33 99.21 64.33C105.25 64.33 110.12 65.9 113.69 68.98C116.3 71.24 117.92 73.98 118.6 77.29L134.49 70.34C132.82 65.59 129.99 61.49 125.96 58.13C119.32 52.34 110.32 49.41 99.21 49.41C89.12 49.41 80.93 51.78 74.89 56.46C68.57 61.22 65.37 67.69 65.37 75.67C65.37 83.09 68.48 89.54 74.59 94.81C80.34 99.9 87.51 102.83 95.89 103.51C103.36 104.15 109.51 105.71 114.17 108.13C119.57 110.95 122.19 114.66 122.19 119.46C122.19 122.82 120.39 125.49 116.68 127.63C112.78 129.88 107.4 131.03 100.7 131.03C94 131.03 89.03 129.23 85.18 125.66C81.92 122.65 80.09 118.87 79.59 114.18L63.24 120.32C64.82 126.72 68.16 132.2 73.32 136.63C80.52 142.81 90.31 145.94 102.41 145.94C113.49 145.94 122.51 143.36 129.23 138.27C136.01 133.1 139.45 126.09 139.45 117.42C139.45 109.57 135.98 102.83 129.14 97.39L129.16 97.4Z" fill="#A93439"/>
</g>
<defs>
<clipPath id="clip0_160_5742">
<rect width="201.68" height="201.68" fill="white" transform="translate(0.679993)"/>
</clipPath>
</defs>
</svg>
